# xmcd
# 
# Track frame offsets:
#   150
#   16125
#   31125
#   44400
#   58725
#   75900
#   90225
#   107100
#   121350
#   134025
#   148125
#   163800
#   176325
#   192600
#   207450
#   220800
#   235650
#   249675
# 
# Disc length: 3544 seconds
# 
# Revision: 2
# Processed by: cddbd v1.5.2PL0 Copyright (c) Steve Scherf et al.
# Submitted via: Synapstar 1.0 
# 
DISCID=fe0dd612
DTITLE=Various Artist - P208
DYEAR=1900
DGENRE=Country
TTITLE0=Nelson, Willie - Blue Skies
TTITLE1=Yoakum, Dwight - Guitars And Cadillacs
TTITLE2=Strait, George - Amarillo By Morning
TTITLE3=Campbell, Glen - Witchita Lineman, The
TTITLE4=Rabbit, Eddie - Step By Step
TTITLE5=Owens, Buck - Act Naturally
TTITLE6=Mandrell, Barbara - I Was Country When Country Wasn'T Cool
TTITLE7=Tucker, Tanya - Blood Red And Going Down
TTITLE8=Haggard, Merle - If We Make It Through December
TTITLE9=Bellamy Brothers - Do You Love As Good As You Look
TTITLE10=Reed, Jerry - She Got The Goldmine And I Got The Shaft
TTITLE11=Twitty, Conway - Hello Darlin'
TTITLE12=Jennings, Waylon - Lucanbach, Texas (Back To The Basics)
TTITLE13=Nelson, Willie - My Heros Have Always Been Cowboys
TTITLE14=Williams,Don - Some Broken Hearts Never Mend
TTITLE15=Anderson, John - Swingin'
TTITLE16=Williams, Hank Jr. - All My Rowdy Friends Are Coming Over Tonight
TTITLE17=Alabama - Love In The First Degree
EXTD=MediaType: Karaoke CD+G Producer: Pioneer
EXTT0=
EXTT1=
EXTT2=
EXTT3=
EXTT4=
EXTT5=
EXTT6=
EXTT7=
EXTT8=
EXTT9=
EXTT10=
EXTT11=
EXTT12=
EXTT13=
EXTT14=
EXTT15=
EXTT16=
EXTT17=
PLAYORDER=
